<svg width="186" height="260" viewBox="0 0 186 260" fill="none" xmlns="http://www.w3.org/2000/svg">
<rect x="24.5" y="231.5" width="23" height="27" rx="3.5" fill="#33CC00" fill-opacity="0.5" stroke="#75FF46"/>
<rect x="24.5" y="194.5" width="23" height="27" rx="3.5" fill="#33CC00" fill-opacity="0.5" stroke="#75FF46"/>
<rect x="24.5" y="157.5" width="23" height="27" rx="3.5" fill="#33CC00" fill-opacity="0.5" stroke="#75FF46"/>
<rect x="24.5" y="120.5" width="23" height="27" rx="3.5" fill="#33CC00" fill-opacity="0.5" stroke="#75FF46"/>
<rect x="24.5" y="83.5" width="23" height="27" rx="3.5" fill="#33CC00" fill-opacity="0.5" stroke="#75FF46"/>
<rect x="24.5" y="46.5" width="23" height="27" rx="3.5" fill="#33CC00" fill-opacity="0.5" stroke="#75FF46"/>
<rect x="0.5" y="1.5" width="23" height="27" rx="3.5" fill="#33CC00" fill-opacity="0.5" stroke="#75FF46"/>
<rect x="138.5" y="231.5" width="23" height="28" rx="3.5" fill="#259500" fill-opacity="0.5" stroke="#75FF46"/>
<rect x="138.5" y="194.5" width="23" height="28" rx="3.5" fill="#259500" fill-opacity="0.5" stroke="#75FF46"/>
<rect x="138.5" y="157.5" width="23" height="28" rx="3.5" fill="#259500" fill-opacity="0.5" stroke="#75FF46"/>
<rect x="138.5" y="120.5" width="23" height="28" rx="3.5" fill="#259500" fill-opacity="0.5" stroke="#75FF46"/>
<rect x="138.5" y="83.5" width="23" height="28" rx="3.5" fill="#259500" fill-opacity="0.5" stroke="#75FF46"/>
<rect x="138.5" y="46.5" width="23" height="28" rx="3.5" fill="#259500" fill-opacity="0.5" stroke="#75FF46"/>
<rect x="162.5" y="0.5" width="23" height="28" rx="3.5" fill="#259500" fill-opacity="0.5" stroke="#75FF46"/>
<rect x="103" y="231" width="24" height="29" rx="4" fill="#9D0093" fill-opacity="0.8"/>
<rect x="103" y="194" width="24" height="29" rx="4" fill="#9D0093" fill-opacity="0.8"/>
<rect x="103" y="157" width="24" height="29" rx="4" fill="#9D0093" fill-opacity="0.8"/>
<rect x="103" y="120" width="24" height="29" rx="4" fill="#9D0093" fill-opacity="0.8"/>
<rect x="103" y="83" width="24" height="29" rx="4" fill="#9D0093" fill-opacity="0.8"/>
<rect x="103" y="46" width="24" height="29" rx="4" fill="#9D0093" fill-opacity="0.8"/>
<rect x="103" y="8" width="24" height="29" rx="4" fill="#9D0093" fill-opacity="0.8"/>
<rect x="59" y="231" width="24" height="29" rx="4" fill="#9D0093" fill-opacity="0.8"/>
<rect x="59" y="194" width="24" height="29" rx="4" fill="#9D0093" fill-opacity="0.8"/>
<rect x="59" y="157" width="24" height="29" rx="4" fill="#9D0093" fill-opacity="0.8"/>
<rect x="59" y="120" width="24" height="29" rx="4" fill="#9D0093" fill-opacity="0.8"/>
<rect x="59" y="83" width="24" height="29" rx="4" fill="#9D0093" fill-opacity="0.8"/>
<rect x="59" y="46" width="24" height="29" rx="4" fill="#9D0093" fill-opacity="0.8"/>
<rect x="59" y="8" width="24" height="29" rx="4" fill="#9D0093" fill-opacity="0.8"/>
</svg>
